<svg width="31" height="31" viewBox="0 0 31 31" fill="none" xmlns="http://www.w3.org/2000/svg">
<path d="M25.6468 0.802734L4.45754 0.802734C2.03708 0.802734 0.0675049 2.77506 0.0675049 5.1989L0.0675049 26.4177C0.0675049 28.8416 2.03708 30.8139 4.45754 30.8139L13.2962 30.8139L13.2962 20.2045L9.78412 20.2045L9.78412 14.9291H13.2962V11.3535C13.2962 8.44451 15.6592 6.07813 18.5642 6.07813L23.8908 6.07813V11.3535H18.5642L18.5642 14.9291H23.8908L23.0128 20.2045H18.5642V30.8139H25.6468C28.0673 30.8139 30.0368 28.8416 30.0368 26.4177L30.0368 5.1989C30.0368 2.77506 28.0673 0.802734 25.6468 0.802734Z" fill="black"/>
</svg>
