<svg width="31" height="31" viewBox="0 0 31 31" fill="none" xmlns="http://www.w3.org/2000/svg">
<path d="M0.960143 10.1808L0.960144 21.435C0.960144 26.6138 5.15398 30.8135 10.3256 30.8135L21.5641 30.8135C26.7356 30.8135 30.9295 26.6138 30.9295 21.435L30.9295 10.1808C30.9295 5.00201 26.7356 0.802319 21.5641 0.80232L10.3256 0.80232C5.15398 0.80232 0.960143 5.00201 0.960143 10.1808ZM21.5641 3.61587C25.1791 3.61587 28.1198 6.56071 28.1198 10.1808L28.1198 21.435C28.1198 25.0551 25.1791 27.9999 21.5641 27.9999L10.3256 27.9999C6.71051 27.9999 3.76977 25.0551 3.76977 21.435L3.76977 10.1808C3.76977 6.56071 6.71051 3.61587 10.3256 3.61587L21.5641 3.61587Z" fill="black"/>
<path d="M8.45251 15.8078C8.45251 19.9512 11.8072 23.3105 15.9448 23.3105C20.0825 23.3105 23.4372 19.9512 23.4372 15.8078C23.4372 11.6643 20.0825 8.30497 15.9448 8.30497C11.8072 8.30497 8.45251 11.6643 8.45251 15.8078ZM20.6276 15.8078C20.6276 18.3925 18.526 20.497 15.9448 20.497C13.3619 20.497 11.2621 18.3925 11.2621 15.8078C11.2621 13.223 13.3619 11.1185 15.9448 11.1185C18.526 11.1185 20.6276 13.223 20.6276 15.8078Z" fill="black"/>
<path d="M8.88891 7.74281C8.88891 7.19087 8.44193 6.74344 7.89056 6.74344C7.33919 6.74344 6.89221 7.19087 6.89221 7.74281C6.89221 8.29475 7.33919 8.74219 7.89056 8.74219C8.44193 8.74219 8.88891 8.29475 8.88891 7.74281Z" fill="black"/>
</svg>
