<svg width="30" height="31" viewBox="0 0 30 31" fill="none" xmlns="http://www.w3.org/2000/svg">
<path d="M14.9959 30.8139C23.2737 30.8139 29.9806 24.0976 29.9806 15.8083C29.9806 7.51898 23.2737 0.802734 14.9959 0.802734C6.71812 0.802734 0.0112305 7.51898 0.0112305 15.8083C0.0112305 24.0976 6.71812 30.8139 14.9959 30.8139ZM6.86796 15.4832L21.3157 9.90487C21.9862 9.66228 22.5719 10.0687 22.3546 11.0841L22.3559 11.0828L19.8959 22.6884C19.7136 23.5112 19.2253 23.7113 18.5423 23.3236L14.7961 20.5588L12.9892 22.302C12.7894 22.5021 12.6208 22.6709 12.2337 22.6709L12.4997 18.8532L19.4426 12.5721C19.7448 12.3058 19.3752 12.1557 18.9768 12.4208L10.3969 17.8303L6.69814 16.6749C5.89521 16.4198 5.87773 15.8708 6.86796 15.4832V15.4832Z" fill="black"/>
</svg>
